<svg xmlns="http://www.w3.org/2000/svg" width="375" height="812" viewBox="0 0 375 812">
  <title>HU_01 - Efectivo sin llegar, error (admin, movil)</title>
  <defs>
    <radialGradient id="ga" cx="50%" cy="50%" r="50%"><stop offset="0" stop-color="#c6f24e" stop-opacity="0.14"/><stop offset="1" stop-color="#c6f24e" stop-opacity="0"/></radialGradient>
    <radialGradient id="gc" cx="50%" cy="50%" r="50%"><stop offset="0" stop-color="#ff8b7c" stop-opacity="0.12"/><stop offset="1" stop-color="#ff8b7c" stop-opacity="0"/></radialGradient>
    <clipPath id="tabsclip"><rect x="0" y="108" width="375" height="60"/></clipPath>
  </defs>
  <style>
    text{font-family:'Plus Jakarta Sans',system-ui,-apple-system,'Segoe UI',sans-serif}
  </style>
  <rect width="375" height="812" fill="#0e1116"/>
  <circle cx="30" cy="160" r="190" fill="url(#ga)"/>
  <circle cx="340" cy="440" r="200" fill="url(#gc)"/>

  <rect x="0" y="0" width="375" height="56" fill="#0e1116" fill-opacity="0.92"/>
  <circle cx="32" cy="28" r="15" fill="#c6f24e"/>
  <text x="32" y="33" text-anchor="middle" font-size="14" font-weight="800" fill="#10140c">K</text>
  <text x="56" y="34" font-size="17" font-weight="800" fill="#f4f6f8">Kentro</text>
  <circle cx="343" cy="28" r="18" fill="#ffffff" fill-opacity="0.06" stroke="#ffffff" stroke-opacity="0.14"/>
  <text x="343" y="32" text-anchor="middle" font-size="12" font-weight="700" fill="#f4f6f8">AD</text>
  <text x="16" y="96" font-size="28" font-weight="800" fill="#f4f6f8" letter-spacing="-0.9">Liquidaciones</text>
  <g clip-path="url(#tabsclip)">
    <rect x="12" y="112" width="440" height="52" rx="26" fill="#ffffff" fill-opacity="0.06" stroke="#ffffff" stroke-opacity="0.14"/>
    <text x="64" y="143" text-anchor="middle" font-size="14" font-weight="600" fill="#cbd3dc">Por pagar</text>
    <rect x="116" y="116" width="164" height="44" rx="22" fill="#f4f6f8"/>
    <text x="198" y="143" text-anchor="middle" font-size="14" font-weight="700" fill="#0e1116">Efectivo sin llegar</text>
    <text x="294" y="143" font-size="14" font-weight="600" fill="#cbd3dc">Cortes cerrados</text>
  </g>
  <text x="16" y="198" font-size="20" font-weight="700" fill="#f4f6f8">Efectivo sin llegar</text>
  <text x="16" y="220" font-size="13" fill="#9aa5b3">Contraentregas entregadas que Kentro aun no</text>
  <text x="16" y="238" font-size="13" fill="#9aa5b3">recibe en un corte</text>
  <!-- En error, "Actualizar" se oculta: la unica accion es Reintentar -->
  <rect x="16" y="252" width="132" height="44" rx="22" fill="#ffffff" fill-opacity="0.06" stroke="#ffffff" stroke-opacity="0.14"/>
  <text x="82" y="279" text-anchor="middle" font-size="14" font-weight="600" fill="#f4f6f8">Plazo y aviso</text>

  <!-- Alerta (role=alert): sin cifras parciales -->
  <rect x="16" y="316" width="343" height="252" rx="24" fill="#191e25" stroke="#ff8b7c" stroke-opacity="0.35"/>
  <circle cx="48" cy="350" r="18" fill="#ff8b7c" fill-opacity="0.14"/>
  <text x="48" y="356" text-anchor="middle" font-size="17" font-weight="800" fill="#ff8b7c">!</text>
  <text x="76" y="346" font-size="16" font-weight="700" fill="#f4f6f8">No se pudo calcular el</text>
  <text x="76" y="366" font-size="16" font-weight="700" fill="#f4f6f8">efectivo sin llegar</text>
  <text x="32" y="404" font-size="13" fill="#cbd3dc">El servidor no respondio a tiempo.</text>
  <text x="32" y="426" font-size="13" fill="#9aa5b3">No mostramos cifras a medias: un total</text>
  <text x="32" y="444" font-size="13" fill="#9aa5b3">incompleto haria pensar que se debe menos</text>
  <text x="32" y="462" font-size="13" fill="#9aa5b3">de lo que se debe.</text>
  <text x="32" y="488" font-size="11" fill="#9aa5b3">Codigo: deadline-exceeded</text>
  <rect x="32" y="504" width="311" height="44" rx="22" fill="#c6f24e"/>
  <text x="187.5" y="531" text-anchor="middle" font-size="15" font-weight="700" fill="#10140c">Reintentar</text>

  <rect x="0" y="748" width="375" height="64" fill="#141920"/>
  <line x1="0" y1="748.5" x2="375" y2="748.5" stroke="#ffffff" stroke-opacity="0.06"/>
  <g font-size="10" text-anchor="middle">
    <rect x="21" y="758" width="20" height="20" rx="6" fill="#9aa5b3" fill-opacity="0.5"/><text x="31" y="796" fill="#9aa5b3">Operacion</text>
    <rect x="84" y="758" width="20" height="20" rx="6" fill="#9aa5b3" fill-opacity="0.5"/><text x="94" y="796" fill="#9aa5b3">Wallet</text>
    <rect x="146" y="758" width="20" height="20" rx="6" fill="#9aa5b3" fill-opacity="0.5"/><text x="156" y="796" fill="#9aa5b3">Inventario</text>
    <rect x="209" y="758" width="20" height="20" rx="6" fill="#9aa5b3" fill-opacity="0.5"/><text x="219" y="796" fill="#9aa5b3">Tiendas</text>
    <rect x="271" y="758" width="20" height="20" rx="6" fill="#c6f24e"/><text x="281" y="796" fill="#f4f6f8" font-weight="700">Cortes</text>
    <rect x="334" y="758" width="20" height="20" rx="6" fill="#9aa5b3" fill-opacity="0.5"/><text x="344" y="796" fill="#9aa5b3">Ajustes</text>
  </g>
</svg>
