<svg xmlns="http://www.w3.org/2000/svg" width="375" height="812" viewBox="0 0 375 812" role="img" aria-label="Movil: pestana Costo de producto con los productos a 0 pesos de Nambu en tarjetas">
<title>HU_01 - Costo de producto (movil 375)</title>
<defs>
<style>
text{font-family:'Plus Jakarta Sans',Arial,sans-serif;fill:#f4f6f8;font-size:14px}
.t{font-size:24px;font-weight:800;letter-spacing:-.8px}
.h3{font-size:16px;font-weight:700}
.s{font-size:13px}.xs{font-size:12px}.xxs{font-size:11px}
.m{fill:#9aa5b3}.fg2{fill:#cbd3dc}.rust{fill:#ff8b7c}.deep{fill:#10140c}
.b{font-weight:700}.sb{font-weight:600}
.num{font-variant-numeric:tabular-nums}
.r{text-anchor:end}.c{text-anchor:middle}
.ln{stroke:#ffffff;stroke-opacity:.06;stroke-width:1}
.ol{fill:none;stroke:#ffffff;stroke-opacity:.14;stroke-width:1}
</style>
</defs>
<rect width="375" height="812" fill="#0e1116"/>

<text x="16" y="40" class="t">Liquidaciones</text>
<rect x="16" y="56" width="343" height="64" rx="24" fill="#c6f24e"/>
<text x="32" y="80" class="xs deep sb">Total por pagar</text>
<text x="32" y="106" class="deep b num" font-size="22">$12.480.300</text>

<rect x="16" y="132" width="96" height="44" rx="22" class="ol"/><text x="64" y="159" class="c s sb m">Por pagar</text>
<rect x="120" y="132" width="140" height="44" rx="22" class="ol"/><text x="190" y="159" class="c s sb m">Cortes cerrados</text>
<rect x="16" y="184" width="170" height="44" rx="22" class="ol"/><text x="101" y="211" class="c s sb m">Resumen del periodo</text>
<rect x="194" y="184" width="160" height="44" rx="22" fill="#c6f24e"/><text x="274" y="211" class="c s sb deep">Costo de producto</text>

<text x="16" y="254" class="xs sb m">Tienda</text>
<rect x="16" y="262" width="343" height="44" rx="22" fill="#191e25" stroke="#ffffff" stroke-opacity=".1"/>
<text x="36" y="289" class="s">Nambu</text>
<path d="M332 281 l6 6 l6 -6" fill="none" stroke="#9aa5b3" stroke-width="2"/>
<rect x="16" y="318" width="200" height="44" rx="22" fill="#c6f24e"/><text x="116" y="345" class="c s b deep">Corregir costo</text>
<rect x="224" y="318" width="135" height="44" rx="22" fill="#ffffff" fill-opacity=".06" stroke="#ffffff" stroke-opacity=".14"/><text x="291" y="345" class="c s sb">Registrar cruce</text>

<text x="16" y="394" class="h3">Productos a $0 con pedidos entregados</text>
<text x="16" y="414" class="xs m">Su costo no se desconto al cerrar.</text>

<rect x="16" y="428" width="343" height="128" rx="16" fill="#191e25" stroke="#ffffff" stroke-opacity=".06"/>
<text x="32" y="454" class="b">Lung Cleansing</text>
<text x="32" y="472" class="xs m">ADMA LABORATORIO · SKU NB-LUNG</text>
<rect x="210" y="440" width="136" height="22" rx="11" fill="#ff8b7c" fill-opacity=".12"/><text x="278" y="455" class="c xxs sb rust">Sin costo configurado</text>
<text x="32" y="498" class="s num"><tspan class="b rust">14</tspan><tspan class="fg2"> de 14 sin costo · cierre 28 sep</tspan></text>
<rect x="32" y="508" width="140" height="44" rx="22" class="ol"/><text x="102" y="535" class="c s sb">Poner costo</text>
<circle cx="321" cy="530" r="22" class="ol"/><text x="321" y="535" class="c b m">...</text>

<rect x="16" y="568" width="343" height="128" rx="16" fill="#191e25" stroke="#ffffff" stroke-opacity=".06"/>
<text x="32" y="594" class="b">Chest Relief</text>
<text x="32" y="612" class="xs m">ADMA LABORATORIO · SKU NB-CHEST</text>
<rect x="210" y="580" width="136" height="22" rx="11" fill="#ff8b7c" fill-opacity=".12"/><text x="278" y="595" class="c xxs sb rust">Sin costo configurado</text>
<text x="32" y="638" class="s num"><tspan class="b rust">23</tspan><tspan class="fg2"> de 23 sin costo · cierre 29 sep</tspan></text>
<rect x="32" y="648" width="140" height="44" rx="22" class="ol"/><text x="102" y="675" class="c s sb">Poner costo</text>
<circle cx="321" cy="670" r="22" class="ol"/><text x="321" y="675" class="c b m">...</text>

<text x="16" y="735" class="xs m">1-2 de 3</text>
<rect x="155" y="708" width="96" height="44" rx="22" class="ol" stroke-opacity=".06"/><text x="203" y="735" class="c s sb m">Anterior</text>
<rect x="259" y="708" width="100" height="44" rx="22" class="ol"/><text x="309" y="735" class="c s sb">Siguiente</text>

<rect x="0" y="764" width="375" height="48" fill="#191e25"/>
<line x1="0" y1="764" x2="375" y2="764" class="ln"/>
<g class="xxs c">
<text x="31" y="793" class="m">Operacion</text>
<text x="93" y="793" class="m">Wallet</text>
<text x="156" y="793" class="m">Inventario</text>
<text x="218" y="793" class="m">Tiendas</text>
<rect x="255" y="774" width="52" height="28" rx="14" fill="#c6f24e"/><text x="281" y="793" class="b deep">Cortes</text>
<text x="343" y="793" class="m">Ajustes</text>
</g>
</svg>
